<svg height="453pt" viewBox="0 0 453 453.16476" width="453pt" xmlns="http://www.w3.org/2000/svg"><path d="m284.128906 55.871094-33.699218-28.019532c-13.421876-11.160156-35.222657-11.160156-48.640626 0l-33.699218 28.019532-15.933594 13.246094-23.078125 19.191406s-103.65625 86.234375-115.167969 95.800781l154.183594 128.203125 33.699219 28.015625c13.414062 11.15625 35.214843 11.15625 48.628906 0l33.699219-28.015625 154.179687-128.210938c-1.152343-1.085937-154.171875-128.230468-154.171875-128.230468zm0 0" fill="#87796f"/><path d="m440.359375 181.917969c-1.164063-1.09375-128.75-107.113281-154.3125-128.351563l-33.699219-28.023437c-14.46875-12.027344-38.007812-12.03125-52.476562 0l-72.710938 60.457031s-103.65625 86.234375-115.167968 95.804688c-.6875.566406-1.085938 1.414062-1.085938 2.304687 0 .894531.394531 1.738281 1.082031 2.308594l187.886719 156.214843c7.230469 6.015626 16.730469 9.023438 26.230469 9.023438s19-3.007812 26.234375-9.023438l187.875-156.226562c.660156-.546875 1.054687-1.355469 1.082031-2.214844.03125-.855468-.3125-1.683594-.9375-2.273437zm-191.855469 156.105469c-12.351562 10.265624-32.445312 10.265624-44.792968 0l-185.109376-153.914063c20.050782-16.671875 112.394532-93.496094 112.394532-93.496094l72.710937-60.457031c12.351563-10.273438 32.453125-10.273438 44.804688 0l33.699219 28.019531c47.878906 39.78125 135.152343 112.320313 151.417968 125.910157zm0 0" fill="#3a312a"/><path d="m64.902344 22.355469c-1.945313 23.128906-26.046875 26.777343-26.046875 26.777343 20.691406.976563 25.847656 28.121094 25.847656 28.121094.441406-19.355468 26.644531-28.40625 26.644531-28.40625-19.628906-1.175781-26.445312-26.492187-26.445312-26.492187zm0 0" fill="#d7e057"/><path d="m91.527344 45.851562c-17.210938-1.027343-23.664063-24.046874-23.730469-24.28125-.378906-1.402343-1.691406-2.324218-3.167969-2.203124-1.449218.132812-2.59375 1.285156-2.714844 2.734374-1.722656 20.429688-22.628906 23.925782-23.507812 24.066407-1.527344.230469-2.628906 1.578125-2.546875 3.121093.078125 1.539063 1.3125 2.769532 2.851563 2.839844 18.058593.851563 23 25.4375 23.046874 25.6875.273438 1.421875 1.519532 2.433594 2.945313 2.433594.082031 0 .167969-.003906.25-.011719 1.53125-.128906 2.714844-1.386719 2.75-2.917969.390625-17.015624 24.382813-25.554687 24.625-25.636718 1.351563-.472656 2.183594-1.828125 1.988281-3.246094-.195312-1.417969-1.363281-2.5-2.789062-2.585938zm-27.132813 20.691407c-2.714843-6.257813-7.417969-13.8125-15.175781-17.75 5.863281-2.808594 12.820312-7.828125 16.40625-16.546875 3.101562 6.144531 8.398438 13.761718 16.664062 17.445312-6.011718 3.28125-13.84375 8.808594-17.894531 16.851563zm0 0" fill="#3a312a"/><path d="m21.507812 56.316406c-1.378906 16.359375-18.425781 18.941406-18.425781 18.941406 14.636719.6875 18.285157 19.890626 18.285157 19.890626.3125-13.691407 18.84375-20.09375 18.84375-20.09375-13.882813-.828126-18.703126-18.738282-18.703126-18.738282zm0 0" fill="#d7e057"/><path d="m40.386719 72.0625c-11.53125-.691406-15.945313-16.375-15.984375-16.53125-.382813-1.40625-1.714844-2.335938-3.164063-2.203125-1.453125.128906-2.601562 1.285156-2.722656 2.734375-1.15625 13.742188-15.292969 16.132812-15.882813 16.226562-1.527343.230469-2.6249995 1.582032-2.5468745 3.125.0820315 1.539063 1.3164065 2.765626 2.8554685 2.839844 12.070313.570313 15.445313 17.289063 15.476563 17.453125.269531 1.425781 1.519531 2.441407 2.945312 2.441407.082031 0 .164063-.003907.25-.011719 1.527344-.125 2.714844-1.386719 2.75-2.921875.261719-11.417969 16.664063-17.269532 16.828125-17.324219 1.351563-.46875 2.1875-1.824219 1.992188-3.242187-.195313-1.417969-1.363282-2.503907-2.796875-2.585938zm-19.167969 13.585938c-1.847656-3.769532-4.679688-7.894532-8.894531-10.558594 3.710937-2.082032 7.394531-5.257813 9.742187-9.832032 2.113282 3.746094 5.308594 7.90625 9.882813 10.445313-3.699219 2.203125-7.980469 5.480469-10.730469 9.945313zm0 0" fill="#3a312a"/><path d="m21.507812 3c-1.378906 16.359375-18.425781 18.941406-18.425781 18.941406 14.636719.6875 18.285157 19.886719 18.285157 19.886719.3125-13.6875 18.84375-20.089844 18.84375-20.089844-13.882813-.828125-18.703126-18.738281-18.703126-18.738281zm0 0" fill="#d7e057"/><path d="m40.386719 18.746094c-11.53125-.691406-15.941407-16.371094-15.984375-16.53125-.382813-1.402344-1.714844-2.335938-3.164063-2.2031252-1.453125.1328122-2.601562 1.2851562-2.722656 2.7382812-1.15625 13.742188-15.292969 16.128906-15.882813 16.226562-1.527343.226563-2.6249995 1.578126-2.5468745 3.121094.0820315 1.539063 1.3164065 2.765625 2.8554685 2.839844 12.070313.570312 15.445313 17.289062 15.476563 17.453125.269531 1.425781 1.519531 2.441406 2.945312 2.441406.082031 0 .164063-.003906.25-.011719 1.527344-.125 2.714844-1.386718 2.75-2.921874.261719-11.417969 16.664063-17.269532 16.828125-17.324219 1.351563-.46875 2.1875-1.824219 1.992188-3.242188-.195313-1.417969-1.363282-2.5-2.796875-2.585937zm-19.167969 13.589844c-1.847656-3.773438-4.679688-7.894532-8.894531-10.5625 3.710937-2.082032 7.394531-5.257813 9.742187-9.832032 2.113282 3.75 5.304688 7.910156 9.878906 10.449219-3.695312 2.199219-7.976562 5.480469-10.726562 9.945313zm0 0" fill="#3a312a"/><path d="m363.648438 87.589844h-275.179688c-17.703125 0-32.050781 14.351562-32.050781 32.054687v298.464844c0 17.707031 14.351562 32.054687 32.050781 32.054687h275.179688c17.703124 0 32.054687-14.351562 32.054687-32.054687v-298.464844c0-17.707031-14.351563-32.054687-32.054687-32.054687zm0 0" fill="#fce8cb"/><path d="m363.648438 84.589844h-66.933594c-1.65625 0-3 1.339844-3 3 0 1.65625 1.34375 3 3 3h66.933594c16.023437 0 29.054687 13.03125 29.054687 29.054687v298.464844c0 16.019531-13.035156 29.054687-29.054687 29.054687h-275.179688c-16.019531 0-29.054688-13.035156-29.054688-29.054687v-298.464844c0-16.023437 13.035157-29.054687 29.054688-29.054687h178.738281c1.65625 0 3-1.34375 3-3 0-1.660156-1.34375-3-3-3h-178.738281c-19.328125 0-35.054688 15.726562-35.054688 35.054687v298.464844c0 19.332031 15.726563 35.054687 35.054688 35.054687h275.179688c19.328124 0 35.054687-15.726562 35.054687-35.054687v-298.464844c0-19.332031-15.726563-35.054687-35.054687-35.054687zm0 0" fill="#3a312a"/><path d="m235.484375 108.730469c-48.847656 0-80.3125 39.167969-80.3125 84.496093 0 42.246094 30.582031 68.648438 66.671875 68.648438 13.015625 0 24.148438-1.886719 34.910156-6.722656 2.417969-1.085938 3.589844-3.871094 2.664063-6.359375-1.007813-2.707031-4.066407-3.960938-6.722657-2.820313-8.195312 3.519532-18.011718 5.34375-28.433593 5.34375-32.566407 0-56.550781-22.664062-56.550781-59.410156 0-44.667969 30.148437-73.054688 66.011718-73.054688 34.109375 0 53.25 22.882813 53.25 54.789063 0 25.523437-12.539062 40.484375-23.761718 40.265625-7.261719-.21875-9.902344-7.921875-6.601563-24.644531l7.484375-39.828125c-5.722656-2.640625-14.082031-4.617188-23.546875-4.617188-30.585937 0-52.148437 24.863282-52.148437 52.148438 0 17.382812 11.003906 27.722656 23.765624 27.722656 13.199219 0 23.324219-6.378906 31.023438-19.359375h.878906c-.660156 13.421875 7.480469 19.359375 16.285156 19.359375 20.683594 0 39.164063-19.359375 39.164063-52.367188 0-36.742187-25.746094-63.589843-64.03125-63.589843zm8.800781 74.152343c-2.421875 13.644532-14.082031 29.925782-26.84375 29.925782-9.679687 0-14.523437-7.042969-14.523437-16.722656 0-21.34375 15.621093-39.605469 34.988281-39.605469 5.058594 0 8.796875.878906 11 1.539062zm0 0" fill="#f16c7a"/><path d="m267.039062 149.992188c.253907-1.351563-.445312-2.703126-1.691406-3.28125-6.742187-3.109376-15.785156-4.894532-24.804687-4.894532-30.410157 0-55.148438 24.738282-55.148438 55.148438 0 20.167968 13.464844 30.722656 26.765625 30.722656 12.070313 0 21.78125-4.855469 29.519532-14.796875.820312 3.609375 2.414062 6.703125 4.738281 9.144531 3.46875 3.644532 8.417969 5.652344 13.929687 5.652344 20.953125 0 42.167969-19.019531 42.167969-55.367188 0-39.210937-27.5625-66.59375-67.03125-66.59375-47.496094 0-83.316406 37.613282-83.316406 87.496094 0 41.515625 29.300781 71.648438 69.671875 71.648438 14.050781 0 25.535156-2.21875 36.136718-6.984375 3.855469-1.730469 5.71875-6.183594 4.25-10.136719v-.003906c-.769531-2.066406-2.308593-3.683594-4.332031-4.546875-2.023437-.867188-4.351562-.859375-6.386719.015625-7.765624 3.335937-17.1875 5.101562-27.246093 5.101562-32.03125 0-53.550781-22.671875-53.550781-56.410156 0-45.992188 31.699218-70.054688 63.011718-70.054688 30.992188 0 50.246094 19.84375 50.246094 51.792969 0 13.984375-3.941406 25.875-10.816406 32.617188-3.121094 3.0625-6.59375 4.773437-9.855469 4.652343-1.941406-.058593-2.800781-.867187-3.28125-1.46875-1.296875-1.625-3.082031-6.339843-.460937-19.625zm-11.714843 63.191406c1.863281 2.335937 4.558593 3.625 7.824219 3.726562 4.867187.082032 9.921874-2.164062 14.203124-6.367187 8.019532-7.863281 12.621094-21.3125 12.621094-36.902344 0-35.105469-22.078125-57.789063-56.25-57.789063-39.984375 0-69.011718 31.984376-69.011718 76.050782 0 37.332031 23.933593 62.410156 59.550781 62.410156 10.867187 0 21.105469-1.933594 29.613281-5.585938.542969-.234374 1.132812-.238281 1.660156-.015624.5.214843.878906.617187 1.070313 1.128906.371093 1.003906-.105469 2.132812-1.085938 2.574218-9.9375 4.464844-20.324219 6.457032-33.675781 6.457032-36.894531 0-63.671875-27.609375-63.671875-65.652344 0-46.457031 33.238281-81.492188 77.316406-81.492188 35.933594 0 61.027344 24.914063 61.027344 60.589844 0 24.53125-12.421875 49.367188-36.164063 49.367188-3.855468 0-7.261718-1.34375-9.585937-3.785156-2.683594-2.820313-3.964844-7.117188-3.703125-12.425782.042969-.820312-.257812-1.625-.824219-2.21875-.5625-.59375-1.351562-.929687-2.171875-.929687h-.878906c-1.058594 0-2.039062.554687-2.582031 1.46875-7.140625 12.039062-16.441407 17.890625-28.441407 17.890625-12.226562 0-20.765624-10.164063-20.765624-24.722656 0-27.101563 22.046874-49.148438 49.148437-49.148438 7.242187 0 14.445313 1.242188 20.148437 3.441406l-7.027343 37.425782c-2.386719 12.09375-1.84375 20.105468 1.65625 24.503906zm-5.554688-58.039063c-3.6875-1.105469-7.679687-1.664062-11.863281-1.664062-20.949219 0-37.988281 19.113281-37.988281 42.605469 0 12.164062 6.710937 19.722656 17.519531 19.722656 14.171875 0 27.078125-17.074219 29.796875-32.375l4.621094-24.867188c.28125-1.503906-.617188-2.980468-2.085938-3.421875zm-8.4375 27.214844c-2.253906 12.695313-13.179687 27.449219-23.890625 27.449219-10.402344 0-11.523437-9.597656-11.523437-13.722656 0-19.84375 14.648437-36.605469 31.988281-36.605469 2.625 0 5.148438.25 7.539062.753906zm0 0" fill="#3a312a"/><path d="m13.910156 184.109375c-6.660156 6.203125-10.800781 15.042969-10.800781 24.839844v206.722656c0 9.800781 4.140625 18.640625 10.800781 24.859375l154.179688-128.21875zm0 0" fill="#f16c7a"/><path d="m170.007812 310.003906-154.179687-128.199218c-1.164063-.964844-2.859375-.921876-3.964844.113281-7.46875 6.953125-11.753906 16.808593-11.753906 27.035156v131.101563c0 1.65625 1.339844 3 3 3 1.65625 0 3-1.34375 3-3v-131.101563c0-7.6875 2.886719-15.121094 8-20.773437l149.285156 124.132812-149.289062 124.148438c-5.175781-5.699219-7.996094-12.988282-7.996094-20.789063v-45.011719c0-1.660156-1.34375-3-3-3-1.660156 0-3 1.339844-3 3v45.011719c0 10.214844 4.28125 20.078125 11.75 27.050781.578125.539063 1.3125.808594 2.050781.808594.679688 0 1.359375-.230469 1.917969-.695312l154.179687-128.21875c.683594-.570313 1.082032-1.417969 1.082032-2.304688 0-.890625-.398438-1.738281-1.082032-2.308594zm0 0" fill="#3a312a"/><path d="m438.308594 184.109375-154.179688 128.203125 154.179688 128.21875c6.660156-6.21875 10.800781-15.058594 10.800781-24.859375v-206.722656c0-9.796875-4.140625-18.636719-10.800781-24.839844zm0 0" fill="#f16c7a"/><path d="m440.351562 181.914062c-1.101562-1.027343-2.800781-1.074218-3.960937-.109374l-154.179687 128.199218c-.6875.570313-1.082032 1.414063-1.082032 2.304688s.394532 1.734375 1.082032 2.304687l154.179687 128.222657c.554687.460937 1.238281.691406 1.917969.691406.734375 0 1.472656-.269532 2.046875-.804688 7.46875-6.976562 11.753906-16.835937 11.753906-27.054687v-206.71875c0-10.222657-4.285156-20.078125-11.757813-27.035157zm5.757813 233.757813c0 7.800781-2.824219 15.089844-8 20.789063l-149.289063-124.148438 149.289063-124.132812c5.109375 5.652343 8 13.085937 8 20.769531zm0 0" fill="#3a312a"/><path d="m284.121094 312.3125-33.699219-28.019531c-13.414063-11.152344-35.214844-11.152344-48.628906 0l-33.699219 28.019531-154.179688 128.210938c6.054688 5.707031 14.253907 9.199218 23.265626 9.199218h377.855468c9.011719 0 17.210938-3.492187 23.265625-9.199218zm0 0" fill="#f16c7a"/><path d="m440.21875 438.214844-187.878906-156.226563c-14.464844-12.03125-38-12.03125-52.464844 0l-187.878906 156.226563c-.660156.546875-1.054688 1.355468-1.078125 2.214844-.027344.855468.316406 1.683593.941406 2.273437 6.851563 6.460937 15.847656 10.019531 25.324219 10.019531h377.851562c9.476563 0 18.46875-3.558594 25.324219-10.019531.625-.589844.96875-1.417969.941406-2.273437-.027343-.859376-.421875-1.664063-1.082031-2.214844zm-25.183594 8.507812h-377.855468c-6.785157 0-13.273438-2.175781-18.597657-6.183594l185.128907-153.9375c12.347656-10.269531 32.441406-10.269531 44.792968 0l185.125 153.9375c-5.320312 4.007813-11.808594 6.183594-18.59375 6.183594zm0 0" fill="#3a312a"/><path d="m412.859375 166.78125v34.585938l20.769531-17.277344c-3.691406-3.089844-11.050781-9.222656-20.769531-17.308594zm0 0" fill="#695b51"/><g fill="#d34e5c"><path d="m438.109375 188.171875-25 20.777344v206.722656l.820313.679687 24.179687 20.121094c5.179687-5.703125 8-13 8-20.800781v-206.722656c0-7.679688-2.882813-15.117188-8-20.777344zm0 0"/><path d="m412.347656 422.832031c-1.480468 6.898438-5.039062 13.039063-10.039062 17.699219-2.699219 2.519531-5.820313 4.640625-9.238282 6.199219h21.957032c6.800781 0 13.28125-2.179688 18.601562-6.199219zm0 0"/></g></svg>