<svg height="512pt" viewBox="0 0 512.00013 512" width="512pt" xmlns="http://www.w3.org/2000/svg"><path d="m392 180v317c0 8.402344-6.597656 15-15 15h-362c-8.402344 0-15-6.597656-15-15v-317l30-30h337.398438zm0 0" fill="#deecf1"/><path d="m392 180v317c0 8.402344-6.597656 15-15 15h-180v-362h170.398438zm0 0" fill="#c6e2e7"/><path d="m392 105v75h-392v-75c0-24.902344 20.097656-45 45-45h285.199219l16.800781-6c4.800781 0 9.601562 6.902344 14.097656 8.402344 18.003906 5.699218 30.902344 22.5 30.902344 42.597656zm0 0" fill="#ec5569"/><path d="m392 105v75h-195v-120h133.199219l16.800781-6c4.800781 0 9.601562 6.902344 14.097656 8.402344 18.003906 5.699218 30.902344 22.5 30.902344 42.597656zm0 0" fill="#e63950"/><path d="m239.898438 436c0 8.402344-6.597657 15-15 15h-147.898438c-8.402344 0-15-6.597656-15-15s6.597656-15 15-15h147.898438c8.402343 0 15 6.597656 15 15zm0 0" fill="#a8d3d8"/><path d="m239.898438 436c0 8.402344-6.597657 15-15 15h-27.898438v-30h27.898438c8.402343 0 15 6.597656 15 15zm0 0" fill="#8ebac5"/><path d="m280.058594 425.367188c-1.058594 1.058593-2.542969 2.121093-4.03125 2.757812l-42.425782 21.210938c-5.515624 2.972656-12.515624 1.910156-17.179687-2.757813-4.667969-4.664063-5.730469-11.664063-2.757813-17.179687l21.210938-42.425782c.636719-1.488281 1.695312-2.972656 2.757812-4.03125h42.425782zm0 0" fill="#ffcebf"/><path d="m280.058594 382.941406v42.425782c-1.058594 1.058593-2.542969 2.121093-4.03125 2.757812l-42.425782 21.210938c-5.515624 2.96875-12.515624 1.910156-17.179687-2.757813zm0 0" fill="#ffa78f"/><path d="m507.546875 197.882812-31.820313 31.820313h-42.425781v-42.425781l31.816407-31.820313c5.941406-5.941406 15.273437-5.941406 21.214843 0l21.214844 21.210938c5.9375 5.941406 5.9375 15.273437 0 21.214843zm0 0" fill="#54469d"/><path d="m507.546875 197.882812-31.820313 31.820313h-42.425781l63.636719-63.640625 10.609375 10.605469c5.9375 5.941406 5.9375 15.273437 0 21.214843zm0 0" fill="#392e6e"/><path d="m237.628906 382.941406 195.664063-195.664062 42.425781 42.425781-195.664062 195.664063zm0 0" fill="#f27281"/><path d="m258.84375 404.152344 195.664062-195.664063 21.210938 21.214844-195.664062 195.664063zm0 0" fill="#e63950"/><path d="m361.097656 62.402344c-4.496094-1.5-9.296875-2.402344-14.097656-2.402344h-16.800781c-4.199219-17.101562-15.601563-30-28.199219-30s-24 12.898438-28.199219 30c-1.199219 4.800781-1.800781 9.902344-1.800781 15 0 24.300781 13.800781 45 30 45 8.402344 0 15 6.597656 15 15s-6.597656 15-15 15c-33 0-60-33.601562-60-75 0-24.300781-13.800781-45-30-45-5.398438 0-10.5 2.402344-15 6.597656-9 7.5-15 22.203125-15 38.402344s6 30.902344 15 38.402344c4.5 4.199218 9.601562 6.597656 15 6.597656 8.402344 0 15 6.597656 15 15s-6.597656 15-15 15c-5.097656 0-10.199219-.902344-15-2.402344-25.800781-8.398437-45-37.796875-45-72.597656 0-24.300781-13.800781-45-30-45s-30 20.699219-30 45 13.800781 45 30 45c8.402344 0 15 6.597656 15 15s-6.597656 15-15 15c-33 0-60-33.601562-60-75s27-75 60-75c18 0 33.898438 10.199219 45 25.800781 7.800781-11.101562 18.300781-19.5 30-23.398437 4.800781-1.5 9.902344-2.402344 15-2.402344 18 0 33.898438 10.199219 45 25.800781 10.800781-15.898437 27-25.800781 45-25.800781 29.699219 0 54.300781 27 59.097656 62.402344zm0 0" fill="#54469d"/><g fill="#463b85"><path d="m227 135c0 8.402344-6.597656 15-15 15-5.097656 0-10.199219-.902344-15-2.402344v-34.199218c4.5 4.199218 9.601562 6.601562 15 6.601562 8.402344 0 15 6.597656 15 15zm0 0"/><path d="m361.097656 62.402344c-4.496094-1.5-9.296875-2.402344-14.097656-2.402344h-16.800781c-4.199219-17.101562-15.601563-30-28.199219-30s-24 12.898438-28.199219 30c-1.199219 4.800781-1.800781 9.902344-1.800781 15 0 24.300781 13.800781 45 30 45 8.402344 0 15 6.597656 15 15s-6.597656 15-15 15c-33 0-60-33.601562-60-75 0-24.300781-13.800781-45-30-45-5.398438 0-10.5 2.402344-15 6.597656v-34.195312c4.800781-1.5 9.902344-2.402344 15-2.402344 18 0 33.898438 10.199219 45 25.800781 10.800781-15.898437 27-25.800781 45-25.800781 29.699219 0 54.300781 27 59.097656 62.402344zm0 0"/></g></svg>